ISO-10303-21;
HEADER;
/* Generated by software containing ST-Developer
 * from STEP Tools, Inc. (www.steptools.com) 
 */

FILE_DESCRIPTION(
/* description */ (''),
/* implementation_level */ '2;1');

FILE_NAME(
/* name */ 'Sorting Box.step',
/* time_stamp */ '2026-08-16T02:26:01+07:00',
/* author */ (''),
/* organization */ (''),
/* preprocessor_version */ 'ST-DEVELOPER v20.1',
/* originating_system */ 'Autodesk Translation Framework v14.10.0.0',
/* authorisation */ '');

FILE_SCHEMA (('AUTOMOTIVE_DESIGN { 1 0 10303 214 3 1 1 }'));
ENDSEC;

DATA;
#10=MECHANICAL_DESIGN_GEOMETRIC_PRESENTATION_REPRESENTATION('',(#13,#14),
#896);
#11=SHAPE_REPRESENTATION_RELATIONSHIP('SRR','None',#903,#12);
#12=ADVANCED_BREP_SHAPE_REPRESENTATION('',(#15,#16),#895);
#13=STYLED_ITEM('',(#912),#15);
#14=STYLED_ITEM('',(#912),#16);
#15=MANIFOLD_SOLID_BREP('Walls',#519);
#16=MANIFOLD_SOLID_BREP('Bottom',#520);
#17=FACE_BOUND('',#77,.T.);
#18=CYLINDRICAL_SURFACE('',#539,4.00000000006785);
#19=CYLINDRICAL_SURFACE('',#542,4.00000000000085);
#20=CYLINDRICAL_SURFACE('',#546,4.00000000001403);
#21=CYLINDRICAL_SURFACE('',#549,4.00000000008498);
#22=CYLINDRICAL_SURFACE('',#552,6.00000000000002);
#23=CYLINDRICAL_SURFACE('',#556,6.00000000000008);
#24=CYLINDRICAL_SURFACE('',#560,6.00000000000017);
#25=CYLINDRICAL_SURFACE('',#564,5.99999999999872);
#26=CYLINDRICAL_SURFACE('',#570,4.00000000001403);
#27=CYLINDRICAL_SURFACE('',#574,4.00000000006785);
#28=CYLINDRICAL_SURFACE('',#578,4.00000000000085);
#29=CYLINDRICAL_SURFACE('',#582,4.00000000008498);
#30=FACE_OUTER_BOUND('',#59,.T.);
#31=FACE_OUTER_BOUND('',#60,.T.);
#32=FACE_OUTER_BOUND('',#61,.T.);
#33=FACE_OUTER_BOUND('',#62,.T.);
#34=FACE_OUTER_BOUND('',#63,.T.);
#35=FACE_OUTER_BOUND('',#64,.T.);
#36=FACE_OUTER_BOUND('',#65,.T.);
#37=FACE_OUTER_BOUND('',#66,.T.);
#38=FACE_OUTER_BOUND('',#67,.T.);
#39=FACE_OUTER_BOUND('',#68,.T.);
#40=FACE_OUTER_BOUND('',#69,.T.);
#41=FACE_OUTER_BOUND('',#70,.T.);
#42=FACE_OUTER_BOUND('',#71,.T.);
#43=FACE_OUTER_BOUND('',#72,.T.);
#44=FACE_OUTER_BOUND('',#73,.T.);
#45=FACE_OUTER_BOUND('',#74,.T.);
#46=FACE_OUTER_BOUND('',#75,.T.);
#47=FACE_OUTER_BOUND('',#76,.T.);
#48=FACE_OUTER_BOUND('',#78,.T.);
#49=FACE_OUTER_BOUND('',#79,.T.);
#50=FACE_OUTER_BOUND('',#80,.T.);
#51=FACE_OUTER_BOUND('',#81,.T.);
#52=FACE_OUTER_BOUND('',#82,.T.);
#53=FACE_OUTER_BOUND('',#83,.T.);
#54=FACE_OUTER_BOUND('',#84,.T.);
#55=FACE_OUTER_BOUND('',#85,.T.);
#56=FACE_OUTER_BOUND('',#86,.T.);
#57=FACE_OUTER_BOUND('',#87,.T.);
#58=FACE_OUTER_BOUND('',#88,.T.);
#59=EDGE_LOOP('',(#329,#330,#331,#332,#333,#334,#335,#336));
#60=EDGE_LOOP('',(#337,#338,#339,#340));
#61=EDGE_LOOP('',(#341,#342,#343,#344));
#62=EDGE_LOOP('',(#345,#346,#347,#348));
#63=EDGE_LOOP('',(#349,#350,#351,#352));
#64=EDGE_LOOP('',(#353,#354,#355,#356));
#65=EDGE_LOOP('',(#357,#358,#359,#360));
#66=EDGE_LOOP('',(#361,#362,#363,#364));
#67=EDGE_LOOP('',(#365,#366,#367,#368));
#68=EDGE_LOOP('',(#369,#370,#371,#372));
#69=EDGE_LOOP('',(#373,#374,#375,#376));
#70=EDGE_LOOP('',(#377,#378,#379,#380));
#71=EDGE_LOOP('',(#381,#382,#383,#384));
#72=EDGE_LOOP('',(#385,#386,#387,#388));
#73=EDGE_LOOP('',(#389,#390,#391,#392));
#74=EDGE_LOOP('',(#393,#394,#395,#396));
#75=EDGE_LOOP('',(#397,#398,#399,#400));
#76=EDGE_LOOP('',(#401,#402,#403,#404,#405,#406,#407,#408));
#77=EDGE_LOOP('',(#409,#410,#411,#412,#413,#414,#415,#416));
#78=EDGE_LOOP('',(#417,#418,#419,#420,#421,#422,#423,#424));
#79=EDGE_LOOP('',(#425,#426,#427,#428));
#80=EDGE_LOOP('',(#429,#430,#431,#432));
#81=EDGE_LOOP('',(#433,#434,#435,#436));
#82=EDGE_LOOP('',(#437,#438,#439,#440));
#83=EDGE_LOOP('',(#441,#442,#443,#444));
#84=EDGE_LOOP('',(#445,#446,#447,#448));
#85=EDGE_LOOP('',(#449,#450,#451,#452));
#86=EDGE_LOOP('',(#453,#454,#455,#456));
#87=EDGE_LOOP('',(#457,#458,#459,#460,#461,#462,#463,#464));
#88=EDGE_LOOP('',(#465,#466,#467,#468,#469,#470,#471,#472));
#89=LINE('',#749,#137);
#90=LINE('',#753,#138);
#91=LINE('',#757,#139);
#92=LINE('',#760,#140);
#93=LINE('',#763,#141);
#94=LINE('',#766,#142);
#95=LINE('',#769,#143);
#96=LINE('',#770,#144);
#97=LINE('',#773,#145);
#98=LINE('',#777,#146);
#99=LINE('',#778,#147);
#100=LINE('',#781,#148);
#101=LINE('',#782,#149);
#102=LINE('',#786,#150);
#103=LINE('',#789,#151);
#104=LINE('',#790,#152);
#105=LINE('',#796,#153);
#106=LINE('',#798,#154);
#107=LINE('',#800,#155);
#108=LINE('',#801,#156);
#109=LINE('',#807,#157);
#110=LINE('',#810,#158);
#111=LINE('',#812,#159);
#112=LINE('',#813,#160);
#113=LINE('',#819,#161);
#114=LINE('',#822,#162);
#115=LINE('',#824,#163);
#116=LINE('',#825,#164);
#117=LINE('',#831,#165);
#118=LINE('',#834,#166);
#119=LINE('',#836,#167);
#120=LINE('',#837,#168);
#121=LINE('',#846,#169);
#122=LINE('',#848,#170);
#123=LINE('',#850,#171);
#124=LINE('',#851,#172);
#125=LINE('',#857,#173);
#126=LINE('',#860,#174);
#127=LINE('',#862,#175);
#128=LINE('',#863,#176);
#129=LINE('',#869,#177);
#130=LINE('',#872,#178);
#131=LINE('',#874,#179);
#132=LINE('',#875,#180);
#133=LINE('',#881,#181);
#134=LINE('',#884,#182);
#135=LINE('',#886,#183);
#136=LINE('',#887,#184);
#137=VECTOR('',#593,10.);
#138=VECTOR('',#596,10.);
#139=VECTOR('',#599,10.);
#140=VECTOR('',#602,10.);
#141=VECTOR('',#605,10.);
#142=VECTOR('',#608,10.);
#143=VECTOR('',#611,10.);
#144=VECTOR('',#612,10.);
#145=VECTOR('',#615,10.);
#146=VECTOR('',#620,10.);
#147=VECTOR('',#621,10.);
#148=VECTOR('',#624,10.);
#149=VECTOR('',#625,10.);
#150=VECTOR('',#630,10.);
#151=VECTOR('',#633,10.);
#152=VECTOR('',#634,10.);
#153=VECTOR('',#641,10.);
#154=VECTOR('',#642,10.);
#155=VECTOR('',#643,10.);
#156=VECTOR('',#644,10.);
#157=VECTOR('',#651,10.);
#158=VECTOR('',#654,10.);
#159=VECTOR('',#655,10.);
#160=VECTOR('',#656,10.);
#161=VECTOR('',#663,10.);
#162=VECTOR('',#666,10.);
#163=VECTOR('',#667,10.);
#164=VECTOR('',#668,10.);
#165=VECTOR('',#675,10.);
#166=VECTOR('',#678,10.);
#167=VECTOR('',#679,10.);
#168=VECTOR('',#680,10.);
#169=VECTOR('',#693,10.);
#170=VECTOR('',#694,10.);
#171=VECTOR('',#695,10.);
#172=VECTOR('',#696,10.);
#173=VECTOR('',#703,10.);
#174=VECTOR('',#706,10.);
#175=VECTOR('',#707,10.);
#176=VECTOR('',#708,10.);
#177=VECTOR('',#715,10.);
#178=VECTOR('',#718,10.);
#179=VECTOR('',#719,10.);
#180=VECTOR('',#720,10.);
#181=VECTOR('',#727,10.);
#182=VECTOR('',#730,10.);
#183=VECTOR('',#731,10.);
#184=VECTOR('',#732,10.);
#185=CIRCLE('',#535,4.00000000008498);
#186=CIRCLE('',#536,4.00000000000085);
#187=CIRCLE('',#537,4.00000000006785);
#188=CIRCLE('',#538,4.00000000001403);
#189=CIRCLE('',#540,4.00000000006785);
#190=CIRCLE('',#543,4.00000000000085);
#191=CIRCLE('',#547,4.00000000001403);
#192=CIRCLE('',#550,4.00000000008498);
#193=CIRCLE('',#553,6.00000000000002);
#194=CIRCLE('',#554,6.00000000000002);
#195=CIRCLE('',#557,6.00000000000008);
#196=CIRCLE('',#558,6.00000000000008);
#197=CIRCLE('',#561,6.00000000000017);
#198=CIRCLE('',#562,6.00000000000017);
#199=CIRCLE('',#565,5.99999999999872);
#200=CIRCLE('',#566,5.99999999999872);
#201=CIRCLE('',#571,4.00000000001403);
#202=CIRCLE('',#572,4.00000000001403);
#203=CIRCLE('',#575,4.00000000006785);
#204=CIRCLE('',#576,4.00000000006785);
#205=CIRCLE('',#579,4.00000000000085);
#206=CIRCLE('',#580,4.00000000000085);
#207=CIRCLE('',#583,4.00000000008498);
#208=CIRCLE('',#584,4.00000000008498);
#209=VERTEX_POINT('',#745);
#210=VERTEX_POINT('',#746);
#211=VERTEX_POINT('',#748);
#212=VERTEX_POINT('',#750);
#213=VERTEX_POINT('',#752);
#214=VERTEX_POINT('',#754);
#215=VERTEX_POINT('',#756);
#216=VERTEX_POINT('',#758);
#217=VERTEX_POINT('',#762);
#218=VERTEX_POINT('',#764);
#219=VERTEX_POINT('',#768);
#220=VERTEX_POINT('',#772);
#221=VERTEX_POINT('',#776);
#222=VERTEX_POINT('',#780);
#223=VERTEX_POINT('',#784);
#224=VERTEX_POINT('',#788);
#225=VERTEX_POINT('',#794);
#226=VERTEX_POINT('',#795);
#227=VERTEX_POINT('',#797);
#228=VERTEX_POINT('',#799);
#229=VERTEX_POINT('',#803);
#230=VERTEX_POINT('',#805);
#231=VERTEX_POINT('',#809);
#232=VERTEX_POINT('',#811);
#233=VERTEX_POINT('',#815);
#234=VERTEX_POINT('',#817);
#235=VERTEX_POINT('',#821);
#236=VERTEX_POINT('',#823);
#237=VERTEX_POINT('',#827);
#238=VERTEX_POINT('',#829);
#239=VERTEX_POINT('',#833);
#240=VERTEX_POINT('',#835);
#241=VERTEX_POINT('',#844);
#242=VERTEX_POINT('',#845);
#243=VERTEX_POINT('',#847);
#244=VERTEX_POINT('',#849);
#245=VERTEX_POINT('',#853);
#246=VERTEX_POINT('',#855);
#247=VERTEX_POINT('',#859);
#248=VERTEX_POINT('',#861);
#249=VERTEX_POINT('',#865);
#250=VERTEX_POINT('',#867);
#251=VERTEX_POINT('',#871);
#252=VERTEX_POINT('',#873);
#253=VERTEX_POINT('',#877);
#254=VERTEX_POINT('',#879);
#255=VERTEX_POINT('',#883);
#256=VERTEX_POINT('',#885);
#257=EDGE_CURVE('',#209,#210,#185,.T.);
#258=EDGE_CURVE('',#211,#209,#89,.T.);
#259=EDGE_CURVE('',#212,#211,#186,.T.);
#260=EDGE_CURVE('',#213,#212,#90,.T.);
#261=EDGE_CURVE('',#214,#213,#187,.T.);
#262=EDGE_CURVE('',#215,#214,#91,.T.);
#263=EDGE_CURVE('',#216,#215,#188,.T.);
#264=EDGE_CURVE('',#210,#216,#92,.T.);
#265=EDGE_CURVE('',#213,#217,#93,.T.);
#266=EDGE_CURVE('',#218,#217,#189,.T.);
#267=EDGE_CURVE('',#214,#218,#94,.T.);
#268=EDGE_CURVE('',#212,#219,#95,.T.);
#269=EDGE_CURVE('',#217,#219,#96,.T.);
#270=EDGE_CURVE('',#211,#220,#97,.T.);
#271=EDGE_CURVE('',#219,#220,#190,.T.);
#272=EDGE_CURVE('',#209,#221,#98,.T.);
#273=EDGE_CURVE('',#220,#221,#99,.T.);
#274=EDGE_CURVE('',#222,#218,#100,.T.);
#275=EDGE_CURVE('',#215,#222,#101,.T.);
#276=EDGE_CURVE('',#223,#222,#191,.T.);
#277=EDGE_CURVE('',#216,#223,#102,.T.);
#278=EDGE_CURVE('',#224,#223,#103,.T.);
#279=EDGE_CURVE('',#210,#224,#104,.T.);
#280=EDGE_CURVE('',#221,#224,#192,.T.);
#281=EDGE_CURVE('',#225,#226,#105,.T.);
#282=EDGE_CURVE('',#226,#227,#106,.T.);
#283=EDGE_CURVE('',#228,#227,#107,.T.);
#284=EDGE_CURVE('',#225,#228,#108,.T.);
#285=EDGE_CURVE('',#229,#225,#193,.T.);
#286=EDGE_CURVE('',#230,#228,#194,.T.);
#287=EDGE_CURVE('',#229,#230,#109,.T.);
#288=EDGE_CURVE('',#231,#229,#110,.T.);
#289=EDGE_CURVE('',#232,#230,#111,.T.);
#290=EDGE_CURVE('',#231,#232,#112,.T.);
#291=EDGE_CURVE('',#233,#231,#195,.T.);
#292=EDGE_CURVE('',#234,#232,#196,.T.);
#293=EDGE_CURVE('',#233,#234,#113,.T.);
#294=EDGE_CURVE('',#235,#233,#114,.T.);
#295=EDGE_CURVE('',#236,#234,#115,.T.);
#296=EDGE_CURVE('',#235,#236,#116,.T.);
#297=EDGE_CURVE('',#237,#235,#197,.T.);
#298=EDGE_CURVE('',#238,#236,#198,.T.);
#299=EDGE_CURVE('',#237,#238,#117,.T.);
#300=EDGE_CURVE('',#239,#237,#118,.T.);
#301=EDGE_CURVE('',#240,#238,#119,.T.);
#302=EDGE_CURVE('',#239,#240,#120,.T.);
#303=EDGE_CURVE('',#226,#239,#199,.T.);
#304=EDGE_CURVE('',#227,#240,#200,.T.);
#305=EDGE_CURVE('',#241,#242,#121,.T.);
#306=EDGE_CURVE('',#242,#243,#122,.T.);
#307=EDGE_CURVE('',#244,#243,#123,.T.);
#308=EDGE_CURVE('',#241,#244,#124,.T.);
#309=EDGE_CURVE('',#245,#241,#201,.T.);
#310=EDGE_CURVE('',#246,#244,#202,.T.);
#311=EDGE_CURVE('',#245,#246,#125,.T.);
#312=EDGE_CURVE('',#247,#245,#126,.T.);
#313=EDGE_CURVE('',#248,#246,#127,.T.);
#314=EDGE_CURVE('',#247,#248,#128,.T.);
#315=EDGE_CURVE('',#249,#247,#203,.T.);
#316=EDGE_CURVE('',#250,#248,#204,.T.);
#317=EDGE_CURVE('',#249,#250,#129,.T.);
#318=EDGE_CURVE('',#251,#249,#130,.T.);
#319=EDGE_CURVE('',#252,#250,#131,.T.);
#320=EDGE_CURVE('',#251,#252,#132,.T.);
#321=EDGE_CURVE('',#253,#251,#205,.T.);
#322=EDGE_CURVE('',#254,#252,#206,.T.);
#323=EDGE_CURVE('',#253,#254,#133,.T.);
#324=EDGE_CURVE('',#255,#253,#134,.T.);
#325=EDGE_CURVE('',#256,#254,#135,.T.);
#326=EDGE_CURVE('',#255,#256,#136,.T.);
#327=EDGE_CURVE('',#242,#255,#207,.T.);
#328=EDGE_CURVE('',#243,#256,#208,.T.);
#329=ORIENTED_EDGE('',*,*,#257,.F.);
#330=ORIENTED_EDGE('',*,*,#258,.F.);
#331=ORIENTED_EDGE('',*,*,#259,.F.);
#332=ORIENTED_EDGE('',*,*,#260,.F.);
#333=ORIENTED_EDGE('',*,*,#261,.F.);
#334=ORIENTED_EDGE('',*,*,#262,.F.);
#335=ORIENTED_EDGE('',*,*,#263,.F.);
#336=ORIENTED_EDGE('',*,*,#264,.F.);
#337=ORIENTED_EDGE('',*,*,#261,.T.);
#338=ORIENTED_EDGE('',*,*,#265,.T.);
#339=ORIENTED_EDGE('',*,*,#266,.F.);
#340=ORIENTED_EDGE('',*,*,#267,.F.);
#341=ORIENTED_EDGE('',*,*,#260,.T.);
#342=ORIENTED_EDGE('',*,*,#268,.T.);
#343=ORIENTED_EDGE('',*,*,#269,.F.);
#344=ORIENTED_EDGE('',*,*,#265,.F.);
#345=ORIENTED_EDGE('',*,*,#259,.T.);
#346=ORIENTED_EDGE('',*,*,#270,.T.);
#347=ORIENTED_EDGE('',*,*,#271,.F.);
#348=ORIENTED_EDGE('',*,*,#268,.F.);
#349=ORIENTED_EDGE('',*,*,#258,.T.);
#350=ORIENTED_EDGE('',*,*,#272,.T.);
#351=ORIENTED_EDGE('',*,*,#273,.F.);
#352=ORIENTED_EDGE('',*,*,#270,.F.);
#353=ORIENTED_EDGE('',*,*,#262,.T.);
#354=ORIENTED_EDGE('',*,*,#267,.T.);
#355=ORIENTED_EDGE('',*,*,#274,.F.);
#356=ORIENTED_EDGE('',*,*,#275,.F.);
#357=ORIENTED_EDGE('',*,*,#263,.T.);
#358=ORIENTED_EDGE('',*,*,#275,.T.);
#359=ORIENTED_EDGE('',*,*,#276,.F.);
#360=ORIENTED_EDGE('',*,*,#277,.F.);
#361=ORIENTED_EDGE('',*,*,#264,.T.);
#362=ORIENTED_EDGE('',*,*,#277,.T.);
#363=ORIENTED_EDGE('',*,*,#278,.F.);
#364=ORIENTED_EDGE('',*,*,#279,.F.);
#365=ORIENTED_EDGE('',*,*,#257,.T.);
#366=ORIENTED_EDGE('',*,*,#279,.T.);
#367=ORIENTED_EDGE('',*,*,#280,.F.);
#368=ORIENTED_EDGE('',*,*,#272,.F.);
#369=ORIENTED_EDGE('',*,*,#281,.T.);
#370=ORIENTED_EDGE('',*,*,#282,.T.);
#371=ORIENTED_EDGE('',*,*,#283,.F.);
#372=ORIENTED_EDGE('',*,*,#284,.F.);
#373=ORIENTED_EDGE('',*,*,#285,.T.);
#374=ORIENTED_EDGE('',*,*,#284,.T.);
#375=ORIENTED_EDGE('',*,*,#286,.F.);
#376=ORIENTED_EDGE('',*,*,#287,.F.);
#377=ORIENTED_EDGE('',*,*,#288,.T.);
#378=ORIENTED_EDGE('',*,*,#287,.T.);
#379=ORIENTED_EDGE('',*,*,#289,.F.);
#380=ORIENTED_EDGE('',*,*,#290,.F.);
#381=ORIENTED_EDGE('',*,*,#291,.T.);
#382=ORIENTED_EDGE('',*,*,#290,.T.);
#383=ORIENTED_EDGE('',*,*,#292,.F.);
#384=ORIENTED_EDGE('',*,*,#293,.F.);
#385=ORIENTED_EDGE('',*,*,#294,.T.);
#386=ORIENTED_EDGE('',*,*,#293,.T.);
#387=ORIENTED_EDGE('',*,*,#295,.F.);
#388=ORIENTED_EDGE('',*,*,#296,.F.);
#389=ORIENTED_EDGE('',*,*,#297,.T.);
#390=ORIENTED_EDGE('',*,*,#296,.T.);
#391=ORIENTED_EDGE('',*,*,#298,.F.);
#392=ORIENTED_EDGE('',*,*,#299,.F.);
#393=ORIENTED_EDGE('',*,*,#300,.T.);
#394=ORIENTED_EDGE('',*,*,#299,.T.);
#395=ORIENTED_EDGE('',*,*,#301,.F.);
#396=ORIENTED_EDGE('',*,*,#302,.F.);
#397=ORIENTED_EDGE('',*,*,#303,.T.);
#398=ORIENTED_EDGE('',*,*,#302,.T.);
#399=ORIENTED_EDGE('',*,*,#304,.F.);
#400=ORIENTED_EDGE('',*,*,#282,.F.);
#401=ORIENTED_EDGE('',*,*,#304,.T.);
#402=ORIENTED_EDGE('',*,*,#301,.T.);
#403=ORIENTED_EDGE('',*,*,#298,.T.);
#404=ORIENTED_EDGE('',*,*,#295,.T.);
#405=ORIENTED_EDGE('',*,*,#292,.T.);
#406=ORIENTED_EDGE('',*,*,#289,.T.);
#407=ORIENTED_EDGE('',*,*,#286,.T.);
#408=ORIENTED_EDGE('',*,*,#283,.T.);
#409=ORIENTED_EDGE('',*,*,#280,.T.);
#410=ORIENTED_EDGE('',*,*,#278,.T.);
#411=ORIENTED_EDGE('',*,*,#276,.T.);
#412=ORIENTED_EDGE('',*,*,#274,.T.);
#413=ORIENTED_EDGE('',*,*,#266,.T.);
#414=ORIENTED_EDGE('',*,*,#269,.T.);
#415=ORIENTED_EDGE('',*,*,#271,.T.);
#416=ORIENTED_EDGE('',*,*,#273,.T.);
#417=ORIENTED_EDGE('',*,*,#303,.F.);
#418=ORIENTED_EDGE('',*,*,#281,.F.);
#419=ORIENTED_EDGE('',*,*,#285,.F.);
#420=ORIENTED_EDGE('',*,*,#288,.F.);
#421=ORIENTED_EDGE('',*,*,#291,.F.);
#422=ORIENTED_EDGE('',*,*,#294,.F.);
#423=ORIENTED_EDGE('',*,*,#297,.F.);
#424=ORIENTED_EDGE('',*,*,#300,.F.);
#425=ORIENTED_EDGE('',*,*,#305,.T.);
#426=ORIENTED_EDGE('',*,*,#306,.T.);
#427=ORIENTED_EDGE('',*,*,#307,.F.);
#428=ORIENTED_EDGE('',*,*,#308,.F.);
#429=ORIENTED_EDGE('',*,*,#309,.T.);
#430=ORIENTED_EDGE('',*,*,#308,.T.);
#431=ORIENTED_EDGE('',*,*,#310,.F.);
#432=ORIENTED_EDGE('',*,*,#311,.F.);
#433=ORIENTED_EDGE('',*,*,#312,.T.);
#434=ORIENTED_EDGE('',*,*,#311,.T.);
#435=ORIENTED_EDGE('',*,*,#313,.F.);
#436=ORIENTED_EDGE('',*,*,#314,.F.);
#437=ORIENTED_EDGE('',*,*,#315,.T.);
#438=ORIENTED_EDGE('',*,*,#314,.T.);
#439=ORIENTED_EDGE('',*,*,#316,.F.);
#440=ORIENTED_EDGE('',*,*,#317,.F.);
#441=ORIENTED_EDGE('',*,*,#318,.T.);
#442=ORIENTED_EDGE('',*,*,#317,.T.);
#443=ORIENTED_EDGE('',*,*,#319,.F.);
#444=ORIENTED_EDGE('',*,*,#320,.F.);
#445=ORIENTED_EDGE('',*,*,#321,.T.);
#446=ORIENTED_EDGE('',*,*,#320,.T.);
#447=ORIENTED_EDGE('',*,*,#322,.F.);
#448=ORIENTED_EDGE('',*,*,#323,.F.);
#449=ORIENTED_EDGE('',*,*,#324,.T.);
#450=ORIENTED_EDGE('',*,*,#323,.T.);
#451=ORIENTED_EDGE('',*,*,#325,.F.);
#452=ORIENTED_EDGE('',*,*,#326,.F.);
#453=ORIENTED_EDGE('',*,*,#327,.T.);
#454=ORIENTED_EDGE('',*,*,#326,.T.);
#455=ORIENTED_EDGE('',*,*,#328,.F.);
#456=ORIENTED_EDGE('',*,*,#306,.F.);
#457=ORIENTED_EDGE('',*,*,#328,.T.);
#458=ORIENTED_EDGE('',*,*,#325,.T.);
#459=ORIENTED_EDGE('',*,*,#322,.T.);
#460=ORIENTED_EDGE('',*,*,#319,.T.);
#461=ORIENTED_EDGE('',*,*,#316,.T.);
#462=ORIENTED_EDGE('',*,*,#313,.T.);
#463=ORIENTED_EDGE('',*,*,#310,.T.);
#464=ORIENTED_EDGE('',*,*,#307,.T.);
#465=ORIENTED_EDGE('',*,*,#327,.F.);
#466=ORIENTED_EDGE('',*,*,#305,.F.);
#467=ORIENTED_EDGE('',*,*,#309,.F.);
#468=ORIENTED_EDGE('',*,*,#312,.F.);
#469=ORIENTED_EDGE('',*,*,#315,.F.);
#470=ORIENTED_EDGE('',*,*,#318,.F.);
#471=ORIENTED_EDGE('',*,*,#321,.F.);
#472=ORIENTED_EDGE('',*,*,#324,.F.);
#473=PLANE('',#534);
#474=PLANE('',#541);
#475=PLANE('',#544);
#476=PLANE('',#545);
#477=PLANE('',#548);
#478=PLANE('',#551);
#479=PLANE('',#555);
#480=PLANE('',#559);
#481=PLANE('',#563);
#482=PLANE('',#567);
#483=PLANE('',#568);
#484=PLANE('',#569);
#485=PLANE('',#573);
#486=PLANE('',#577);
#487=PLANE('',#581);
#488=PLANE('',#585);
#489=PLANE('',#586);
#490=ADVANCED_FACE('',(#30),#473,.T.);
#491=ADVANCED_FACE('',(#31),#18,.F.);
#492=ADVANCED_FACE('',(#32),#474,.T.);
#493=ADVANCED_FACE('',(#33),#19,.F.);
#494=ADVANCED_FACE('',(#34),#475,.T.);
#495=ADVANCED_FACE('',(#35),#476,.T.);
#496=ADVANCED_FACE('',(#36),#20,.F.);
#497=ADVANCED_FACE('',(#37),#477,.T.);
#498=ADVANCED_FACE('',(#38),#21,.F.);
#499=ADVANCED_FACE('',(#39),#478,.T.);
#500=ADVANCED_FACE('',(#40),#22,.T.);
#501=ADVANCED_FACE('',(#41),#479,.T.);
#502=ADVANCED_FACE('',(#42),#23,.T.);
#503=ADVANCED_FACE('',(#43),#480,.T.);
#504=ADVANCED_FACE('',(#44),#24,.T.);
#505=ADVANCED_FACE('',(#45),#481,.T.);
#506=ADVANCED_FACE('',(#46),#25,.T.);
#507=ADVANCED_FACE('',(#47,#17),#482,.T.);
#508=ADVANCED_FACE('',(#48),#483,.F.);
#509=ADVANCED_FACE('',(#49),#484,.T.);
#510=ADVANCED_FACE('',(#50),#26,.T.);
#511=ADVANCED_FACE('',(#51),#485,.T.);
#512=ADVANCED_FACE('',(#52),#27,.T.);
#513=ADVANCED_FACE('',(#53),#486,.T.);
#514=ADVANCED_FACE('',(#54),#28,.T.);
#515=ADVANCED_FACE('',(#55),#487,.T.);
#516=ADVANCED_FACE('',(#56),#29,.T.);
#517=ADVANCED_FACE('',(#57),#488,.T.);
#518=ADVANCED_FACE('',(#58),#489,.F.);
#519=CLOSED_SHELL('',(#490,#491,#492,#493,#494,#495,#496,#497,#498,#499,
#500,#501,#502,#503,#504,#505,#506,#507,#508));
#520=CLOSED_SHELL('',(#509,#510,#511,#512,#513,#514,#515,#516,#517,#518));
#521=DERIVED_UNIT_ELEMENT(#523,1.);
#522=DERIVED_UNIT_ELEMENT(#898,-3.);
#523=(
MASS_UNIT()
NAMED_UNIT(*)
SI_UNIT(.KILO.,.GRAM.)
);
#524=DERIVED_UNIT((#521,#522));
#525=MEASURE_REPRESENTATION_ITEM('density measure',
POSITIVE_RATIO_MEASURE(7850.),#524);
#526=PROPERTY_DEFINITION_REPRESENTATION(#531,#528);
#527=PROPERTY_DEFINITION_REPRESENTATION(#532,#529);
#528=REPRESENTATION('material name',(#530),#895);
#529=REPRESENTATION('density',(#525),#895);
#530=DESCRIPTIVE_REPRESENTATION_ITEM('Steel','Steel');
#531=PROPERTY_DEFINITION('material property','material name',#905);
#532=PROPERTY_DEFINITION('material property','density of part',#905);
#533=AXIS2_PLACEMENT_3D('',#743,#587,#588);
#534=AXIS2_PLACEMENT_3D('',#744,#589,#590);
#535=AXIS2_PLACEMENT_3D('',#747,#591,#592);
#536=AXIS2_PLACEMENT_3D('',#751,#594,#595);
#537=AXIS2_PLACEMENT_3D('',#755,#597,#598);
#538=AXIS2_PLACEMENT_3D('',#759,#600,#601);
#539=AXIS2_PLACEMENT_3D('',#761,#603,#604);
#540=AXIS2_PLACEMENT_3D('',#765,#606,#607);
#541=AXIS2_PLACEMENT_3D('',#767,#609,#610);
#542=AXIS2_PLACEMENT_3D('',#771,#613,#614);
#543=AXIS2_PLACEMENT_3D('',#774,#616,#617);
#544=AXIS2_PLACEMENT_3D('',#775,#618,#619);
#545=AXIS2_PLACEMENT_3D('',#779,#622,#623);
#546=AXIS2_PLACEMENT_3D('',#783,#626,#627);
#547=AXIS2_PLACEMENT_3D('',#785,#628,#629);
#548=AXIS2_PLACEMENT_3D('',#787,#631,#632);
#549=AXIS2_PLACEMENT_3D('',#791,#635,#636);
#550=AXIS2_PLACEMENT_3D('',#792,#637,#638);
#551=AXIS2_PLACEMENT_3D('',#793,#639,#640);
#552=AXIS2_PLACEMENT_3D('',#802,#645,#646);
#553=AXIS2_PLACEMENT_3D('',#804,#647,#648);
#554=AXIS2_PLACEMENT_3D('',#806,#649,#650);
#555=AXIS2_PLACEMENT_3D('',#808,#652,#653);
#556=AXIS2_PLACEMENT_3D('',#814,#657,#658);
#557=AXIS2_PLACEMENT_3D('',#816,#659,#660);
#558=AXIS2_PLACEMENT_3D('',#818,#661,#662);
#559=AXIS2_PLACEMENT_3D('',#820,#664,#665);
#560=AXIS2_PLACEMENT_3D('',#826,#669,#670);
#561=AXIS2_PLACEMENT_3D('',#828,#671,#672);
#562=AXIS2_PLACEMENT_3D('',#830,#673,#674);
#563=AXIS2_PLACEMENT_3D('',#832,#676,#677);
#564=AXIS2_PLACEMENT_3D('',#838,#681,#682);
#565=AXIS2_PLACEMENT_3D('',#839,#683,#684);
#566=AXIS2_PLACEMENT_3D('',#840,#685,#686);
#567=AXIS2_PLACEMENT_3D('',#841,#687,#688);
#568=AXIS2_PLACEMENT_3D('',#842,#689,#690);
#569=AXIS2_PLACEMENT_3D('',#843,#691,#692);
#570=AXIS2_PLACEMENT_3D('',#852,#697,#698);
#571=AXIS2_PLACEMENT_3D('',#854,#699,#700);
#572=AXIS2_PLACEMENT_3D('',#856,#701,#702);
#573=AXIS2_PLACEMENT_3D('',#858,#704,#705);
#574=AXIS2_PLACEMENT_3D('',#864,#709,#710);
#575=AXIS2_PLACEMENT_3D('',#866,#711,#712);
#576=AXIS2_PLACEMENT_3D('',#868,#713,#714);
#577=AXIS2_PLACEMENT_3D('',#870,#716,#717);
#578=AXIS2_PLACEMENT_3D('',#876,#721,#722);
#579=AXIS2_PLACEMENT_3D('',#878,#723,#724);
#580=AXIS2_PLACEMENT_3D('',#880,#725,#726);
#581=AXIS2_PLACEMENT_3D('',#882,#728,#729);
#582=AXIS2_PLACEMENT_3D('',#888,#733,#734);
#583=AXIS2_PLACEMENT_3D('',#889,#735,#736);
#584=AXIS2_PLACEMENT_3D('',#890,#737,#738);
#585=AXIS2_PLACEMENT_3D('',#891,#739,#740);
#586=AXIS2_PLACEMENT_3D('',#892,#741,#742);
#587=DIRECTION('axis',(0.,0.,1.));
#588=DIRECTION('refdir',(1.,0.,0.));
#589=DIRECTION('center_axis',(0.,0.,1.));
#590=DIRECTION('ref_axis',(1.,0.,0.));
#591=DIRECTION('center_axis',(0.,0.,-1.));
#592=DIRECTION('ref_axis',(1.34284897865189E-6,0.999999999999098,0.));
#593=DIRECTION('',(-1.58065638712876E-15,1.,0.));
#594=DIRECTION('center_axis',(0.,0.,-1.));
#595=DIRECTION('ref_axis',(-0.999999999999373,-1.12023148313132E-6,0.));
#596=DIRECTION('',(-1.,1.72366798487436E-14,0.));
#597=DIRECTION('center_axis',(0.,0.,-1.));
#598=DIRECTION('ref_axis',(5.74549883437772E-6,-0.999999999983495,0.));
#599=DIRECTION('',(3.55271390755781E-14,-1.,0.));
#600=DIRECTION('center_axis',(0.,0.,-1.));
#601=DIRECTION('ref_axis',(0.999999999998364,-1.80879740518312E-6,0.));
#602=DIRECTION('',(1.,-2.22044582962076E-13,0.));
#603=DIRECTION('center_axis',(0.,0.,1.));
#604=DIRECTION('ref_axis',(5.74549883437772E-6,-0.999999999983495,0.));
#605=DIRECTION('',(0.,0.,1.));
#606=DIRECTION('center_axis',(0.,0.,-1.));
#607=DIRECTION('ref_axis',(5.74549883437772E-6,-0.999999999983495,0.));
#608=DIRECTION('',(0.,0.,1.));
#609=DIRECTION('center_axis',(1.72366798487436E-14,1.,0.));
#610=DIRECTION('ref_axis',(-1.,1.72366798487436E-14,0.));
#611=DIRECTION('',(0.,0.,1.));
#612=DIRECTION('',(-1.,1.72366798487436E-14,0.));
#613=DIRECTION('center_axis',(0.,0.,1.));
#614=DIRECTION('ref_axis',(-0.999999999999373,-1.12023148313132E-6,0.));
#615=DIRECTION('',(0.,0.,1.));
#616=DIRECTION('center_axis',(0.,0.,-1.));
#617=DIRECTION('ref_axis',(-0.999999999999373,-1.12023148313132E-6,0.));
#618=DIRECTION('center_axis',(1.,1.58065638712876E-15,0.));
#619=DIRECTION('ref_axis',(-1.58065638712876E-15,1.,0.));
#620=DIRECTION('',(0.,0.,1.));
#621=DIRECTION('',(-1.58065638712876E-15,1.,0.));
#622=DIRECTION('center_axis',(-1.,-3.55271390755781E-14,0.));
#623=DIRECTION('ref_axis',(3.55271390755781E-14,-1.,0.));
#624=DIRECTION('',(3.55271390755781E-14,-1.,0.));
#625=DIRECTION('',(0.,0.,1.));
#626=DIRECTION('center_axis',(0.,0.,1.));
#627=DIRECTION('ref_axis',(0.999999999998364,-1.80879740518312E-6,0.));
#628=DIRECTION('center_axis',(0.,0.,-1.));
#629=DIRECTION('ref_axis',(0.999999999998364,-1.80879740518312E-6,0.));
#630=DIRECTION('',(0.,0.,1.));
#631=DIRECTION('center_axis',(-2.22044582962076E-13,-1.,0.));
#632=DIRECTION('ref_axis',(1.,-2.22044582962076E-13,0.));
#633=DIRECTION('',(1.,-2.22044582962076E-13,0.));
#634=DIRECTION('',(0.,0.,1.));
#635=DIRECTION('center_axis',(0.,0.,1.));
#636=DIRECTION('ref_axis',(1.34284897865189E-6,0.999999999999098,0.));
#637=DIRECTION('center_axis',(0.,0.,-1.));
#638=DIRECTION('ref_axis',(1.34284897865189E-6,0.999999999999098,0.));
#639=DIRECTION('center_axis',(-1.,1.5053871520341E-16,0.));
#640=DIRECTION('ref_axis',(-1.5053871520341E-16,-1.,0.));
#641=DIRECTION('',(-1.5053871520341E-16,-1.,0.));
#642=DIRECTION('',(0.,0.,1.));
#643=DIRECTION('',(-1.5053871520341E-16,-1.,0.));
#644=DIRECTION('',(0.,0.,1.));
#645=DIRECTION('center_axis',(0.,0.,1.));
#646=DIRECTION('ref_axis',(1.48029736616687E-14,1.,0.));
#647=DIRECTION('center_axis',(0.,0.,1.));
#648=DIRECTION('ref_axis',(1.48029736616687E-14,1.,0.));
#649=DIRECTION('center_axis',(0.,0.,1.));
#650=DIRECTION('ref_axis',(1.48029736616687E-14,1.,0.));
#651=DIRECTION('',(0.,0.,1.));
#652=DIRECTION('center_axis',(-6.02154860813645E-16,1.,0.));
#653=DIRECTION('ref_axis',(-1.,-6.02154860813645E-16,0.));
#654=DIRECTION('',(-1.,-6.02154860813645E-16,0.));
#655=DIRECTION('',(-1.,-6.02154860813645E-16,0.));
#656=DIRECTION('',(0.,0.,1.));
#657=DIRECTION('center_axis',(0.,0.,1.));
#658=DIRECTION('ref_axis',(1.,7.40148683083428E-15,0.));
#659=DIRECTION('center_axis',(0.,0.,1.));
#660=DIRECTION('ref_axis',(1.,7.40148683083428E-15,0.));
#661=DIRECTION('center_axis',(0.,0.,1.));
#662=DIRECTION('ref_axis',(1.,7.40148683083428E-15,0.));
#663=DIRECTION('',(0.,0.,1.));
#664=DIRECTION('center_axis',(1.,0.,0.));
#665=DIRECTION('ref_axis',(0.,1.,0.));
#666=DIRECTION('',(0.,1.,0.));
#667=DIRECTION('',(0.,1.,0.));
#668=DIRECTION('',(0.,0.,1.));
#669=DIRECTION('center_axis',(0.,0.,1.));
#670=DIRECTION('ref_axis',(-7.40148683083417E-15,-1.,0.));
#671=DIRECTION('center_axis',(0.,0.,1.));
#672=DIRECTION('ref_axis',(-7.40148683083417E-15,-1.,0.));
#673=DIRECTION('center_axis',(0.,0.,1.));
#674=DIRECTION('ref_axis',(-7.40148683083417E-15,-1.,0.));
#675=DIRECTION('',(0.,0.,1.));
#676=DIRECTION('center_axis',(7.52693576017049E-17,-1.,0.));
#677=DIRECTION('ref_axis',(1.,7.52693576017049E-17,0.));
#678=DIRECTION('',(1.,7.52693576017049E-17,0.));
#679=DIRECTION('',(1.,7.52693576017049E-17,0.));
#680=DIRECTION('',(0.,0.,1.));
#681=DIRECTION('center_axis',(0.,0.,1.));
#682=DIRECTION('ref_axis',(-1.,-1.48029736616719E-15,0.));
#683=DIRECTION('center_axis',(0.,0.,1.));
#684=DIRECTION('ref_axis',(-1.,-1.48029736616719E-15,0.));
#685=DIRECTION('center_axis',(0.,0.,1.));
#686=DIRECTION('ref_axis',(-1.,-1.48029736616719E-15,0.));
#687=DIRECTION('center_axis',(0.,0.,1.));
#688=DIRECTION('ref_axis',(1.,0.,0.));
#689=DIRECTION('center_axis',(0.,0.,1.));
#690=DIRECTION('ref_axis',(1.,0.,0.));
#691=DIRECTION('center_axis',(2.22044582962076E-13,1.,0.));
#692=DIRECTION('ref_axis',(-1.,2.22044582962076E-13,0.));
#693=DIRECTION('',(-1.,2.22044582962076E-13,0.));
#694=DIRECTION('',(0.,0.,1.));
#695=DIRECTION('',(-1.,2.22044582962076E-13,0.));
#696=DIRECTION('',(0.,0.,1.));
#697=DIRECTION('center_axis',(0.,0.,1.));
#698=DIRECTION('ref_axis',(0.999999999998364,-1.80879740518312E-6,0.));
#699=DIRECTION('center_axis',(0.,0.,1.));
#700=DIRECTION('ref_axis',(0.999999999998364,-1.80879740518312E-6,0.));
#701=DIRECTION('center_axis',(0.,0.,1.));
#702=DIRECTION('ref_axis',(0.999999999998364,-1.80879740518312E-6,0.));
#703=DIRECTION('',(0.,0.,1.));
#704=DIRECTION('center_axis',(1.,3.55271390755781E-14,0.));
#705=DIRECTION('ref_axis',(-3.55271390755781E-14,1.,0.));
#706=DIRECTION('',(-3.55271390755781E-14,1.,0.));
#707=DIRECTION('',(-3.55271390755781E-14,1.,0.));
#708=DIRECTION('',(0.,0.,1.));
#709=DIRECTION('center_axis',(0.,0.,1.));
#710=DIRECTION('ref_axis',(5.74549883437772E-6,-0.999999999983495,0.));
#711=DIRECTION('center_axis',(0.,0.,1.));
#712=DIRECTION('ref_axis',(5.74549883437772E-6,-0.999999999983495,0.));
#713=DIRECTION('center_axis',(0.,0.,1.));
#714=DIRECTION('ref_axis',(5.74549883437772E-6,-0.999999999983495,0.));
#715=DIRECTION('',(0.,0.,1.));
#716=DIRECTION('center_axis',(-1.72366798487436E-14,-1.,0.));
#717=DIRECTION('ref_axis',(1.,-1.72366798487436E-14,0.));
#718=DIRECTION('',(1.,-1.72366798487436E-14,0.));
#719=DIRECTION('',(1.,-1.72366798487436E-14,0.));
#720=DIRECTION('',(0.,0.,1.));
#721=DIRECTION('center_axis',(0.,0.,1.));
#722=DIRECTION('ref_axis',(-0.999999999999373,-1.12023148313132E-6,0.));
#723=DIRECTION('center_axis',(0.,0.,1.));
#724=DIRECTION('ref_axis',(-0.999999999999373,-1.12023148313132E-6,0.));
#725=DIRECTION('center_axis',(0.,0.,1.));
#726=DIRECTION('ref_axis',(-0.999999999999373,-1.12023148313132E-6,0.));
#727=DIRECTION('',(0.,0.,1.));
#728=DIRECTION('center_axis',(-1.,-1.58065638712876E-15,0.));
#729=DIRECTION('ref_axis',(1.58065638712876E-15,-1.,0.));
#730=DIRECTION('',(1.58065638712876E-15,-1.,0.));
#731=DIRECTION('',(1.58065638712876E-15,-1.,0.));
#732=DIRECTION('',(0.,0.,1.));
#733=DIRECTION('center_axis',(0.,0.,1.));
#734=DIRECTION('ref_axis',(1.34284897865189E-6,0.999999999999098,0.));
#735=DIRECTION('center_axis',(0.,0.,1.));
#736=DIRECTION('ref_axis',(1.34284897865189E-6,0.999999999999098,0.));
#737=DIRECTION('center_axis',(0.,0.,1.));
#738=DIRECTION('ref_axis',(1.34284897865189E-6,0.999999999999098,0.));
#739=DIRECTION('center_axis',(0.,0.,1.));
#740=DIRECTION('ref_axis',(1.,0.,0.));
#741=DIRECTION('center_axis',(0.,0.,1.));
#742=DIRECTION('ref_axis',(1.,0.,0.));
#743=CARTESIAN_POINT('',(0.,0.,0.));
#744=CARTESIAN_POINT('Origin',(-7.33635374672303E-12,4.13979961422228E-11,
2.));
#745=CARTESIAN_POINT('',(-63.0000000000822,59.0000046645347,2.));
#746=CARTESIAN_POINT('',(-58.9999946286041,63.0000000000813,2.));
#747=CARTESIAN_POINT('Origin',(-59.,58.9999999999999,2.));
#748=CARTESIAN_POINT('',(-63.,-59.0000044809272,2.));
#749=CARTESIAN_POINT('',(-63.,-29.5000022404429,2.));
#750=CARTESIAN_POINT('',(-58.9999978434509,-62.9999999999995,2.));
#751=CARTESIAN_POINT('Origin',(-59.0000000000016,-59.0000000000013,2.));
#752=CARTESIAN_POINT('',(59.000022981995,-63.0000000000015,2.));
#753=CARTESIAN_POINT('',(29.5000114909933,-63.000000000001,2.));
#754=CARTESIAN_POINT('',(63.0000000000116,-58.9999996372342,2.));
#755=CARTESIAN_POINT('Origin',(58.9999999999997,-58.9999999999997,2.));
#756=CARTESIAN_POINT('',(63.0000000000074,58.9999927648103,2.));
#757=CARTESIAN_POINT('',(63.0000000000084,29.499996382427,2.));
#758=CARTESIAN_POINT('',(59.0000170430551,63.0000000000551,2.));
#759=CARTESIAN_POINT('Origin',(58.9999999999999,58.9999999999999,2.));
#760=CARTESIAN_POINT('',(-29.4999973142987,63.0000000000747,2.));
#761=CARTESIAN_POINT('Origin',(58.9999999999997,-58.9999999999997,0.));
#762=CARTESIAN_POINT('',(59.000022981995,-63.0000000000015,10.));
#763=CARTESIAN_POINT('',(59.000022981995,-63.0000000000015,0.));
#764=CARTESIAN_POINT('',(63.0000000000116,-58.9999996372342,10.));
#765=CARTESIAN_POINT('Origin',(58.9999999999997,-58.9999999999997,10.));
#766=CARTESIAN_POINT('',(63.0000000000116,-58.9999996372342,0.));
#767=CARTESIAN_POINT('Origin',(59.000022981995,-63.0000000000015,0.));
#768=CARTESIAN_POINT('',(-58.9999978434509,-62.9999999999995,10.));
#769=CARTESIAN_POINT('',(-58.9999978434509,-62.9999999999995,0.));
#770=CARTESIAN_POINT('',(-58.9999978434509,-62.9999999999995,10.));
#771=CARTESIAN_POINT('Origin',(-59.0000000000016,-59.0000000000013,0.));
#772=CARTESIAN_POINT('',(-63.,-59.0000044809272,10.));
#773=CARTESIAN_POINT('',(-63.,-59.0000044809272,0.));
#774=CARTESIAN_POINT('Origin',(-59.0000000000016,-59.0000000000013,10.));
#775=CARTESIAN_POINT('Origin',(-63.,-59.0000044809272,0.));
#776=CARTESIAN_POINT('',(-63.0000000000822,59.0000046645347,10.));
#777=CARTESIAN_POINT('',(-63.0000000000822,59.0000046645347,0.));
#778=CARTESIAN_POINT('',(-63.0000000000001,59.0000046645347,10.));
#779=CARTESIAN_POINT('Origin',(63.0000000000074,58.9999927648103,0.));
#780=CARTESIAN_POINT('',(63.0000000000074,58.9999927648103,10.));
#781=CARTESIAN_POINT('',(63.0000000000116,-58.9999996372342,10.));
#782=CARTESIAN_POINT('',(63.0000000000074,58.9999927648103,0.));
#783=CARTESIAN_POINT('Origin',(58.9999999999999,58.9999999999999,0.));
#784=CARTESIAN_POINT('',(59.0000170430551,63.0000000000551,10.));
#785=CARTESIAN_POINT('Origin',(58.9999999999999,58.9999999999999,10.));
#786=CARTESIAN_POINT('',(59.0000170430551,63.0000000000551,0.));
#787=CARTESIAN_POINT('Origin',(-58.999994628604,63.0000000000813,0.));
#788=CARTESIAN_POINT('',(-58.9999946286041,63.0000000000813,10.));
#789=CARTESIAN_POINT('',(59.0000170430551,63.0000000000551,10.));
#790=CARTESIAN_POINT('',(-58.9999946286041,63.0000000000813,0.));
#791=CARTESIAN_POINT('Origin',(-59.,58.9999999999999,0.));
#792=CARTESIAN_POINT('Origin',(-59.,58.9999999999999,10.));
#793=CARTESIAN_POINT('Origin',(-65.,58.9999999999998,0.));
#794=CARTESIAN_POINT('',(-65.,58.9999999999998,0.));
#795=CARTESIAN_POINT('',(-65.,-59.0000000000013,0.));
#796=CARTESIAN_POINT('',(-65.,58.9999999999998,0.));
#797=CARTESIAN_POINT('',(-65.,-59.0000000000013,10.));
#798=CARTESIAN_POINT('',(-65.,-59.0000000000013,0.));
#799=CARTESIAN_POINT('',(-65.,58.9999999999998,10.));
#800=CARTESIAN_POINT('',(-65.,58.9999999999998,10.));
#801=CARTESIAN_POINT('',(-65.,58.9999999999998,0.));
#802=CARTESIAN_POINT('Origin',(-58.9999999999999,58.9999999999998,0.));
#803=CARTESIAN_POINT('',(-58.9999999999998,64.9999999999999,0.));
#804=CARTESIAN_POINT('Origin',(-58.9999999999999,58.9999999999998,0.));
#805=CARTESIAN_POINT('',(-58.9999999999998,64.9999999999999,10.));
#806=CARTESIAN_POINT('Origin',(-58.9999999999999,58.9999999999998,10.));
#807=CARTESIAN_POINT('',(-58.9999999999998,64.9999999999999,0.));
#808=CARTESIAN_POINT('Origin',(59.,64.9999999999999,0.));
#809=CARTESIAN_POINT('',(59.,64.9999999999999,0.));
#810=CARTESIAN_POINT('',(59.,64.9999999999999,0.));
#811=CARTESIAN_POINT('',(59.,64.9999999999999,10.));
#812=CARTESIAN_POINT('',(59.,64.9999999999999,10.));
#813=CARTESIAN_POINT('',(59.,64.9999999999999,0.));
#814=CARTESIAN_POINT('Origin',(58.9999999999999,58.9999999999998,0.));
#815=CARTESIAN_POINT('',(65.,58.9999999999999,0.));
#816=CARTESIAN_POINT('Origin',(58.9999999999999,58.9999999999998,0.));
#817=CARTESIAN_POINT('',(65.,58.9999999999999,10.));
#818=CARTESIAN_POINT('Origin',(58.9999999999999,58.9999999999998,10.));
#819=CARTESIAN_POINT('',(65.,58.9999999999999,0.));
#820=CARTESIAN_POINT('Origin',(65.,-58.9999999999998,0.));
#821=CARTESIAN_POINT('',(64.9999999999999,-58.9999999999998,0.));
#822=CARTESIAN_POINT('',(65.,-58.9999999999998,0.));
#823=CARTESIAN_POINT('',(64.9999999999999,-58.9999999999998,10.));
#824=CARTESIAN_POINT('',(65.,-58.9999999999998,10.));
#825=CARTESIAN_POINT('',(64.9999999999999,-58.9999999999998,0.));
#826=CARTESIAN_POINT('Origin',(58.9999999999997,-58.9999999999998,0.));
#827=CARTESIAN_POINT('',(58.9999999999997,-65.,0.));
#828=CARTESIAN_POINT('Origin',(58.9999999999997,-58.9999999999998,0.));
#829=CARTESIAN_POINT('',(58.9999999999997,-65.,10.));
#830=CARTESIAN_POINT('Origin',(58.9999999999997,-58.9999999999998,10.));
#831=CARTESIAN_POINT('',(58.9999999999997,-65.,0.));
#832=CARTESIAN_POINT('Origin',(-59.0000000000012,-65.,0.));
#833=CARTESIAN_POINT('',(-59.0000000000012,-65.,0.));
#834=CARTESIAN_POINT('',(-59.0000000000012,-65.,0.));
#835=CARTESIAN_POINT('',(-59.0000000000012,-65.,10.));
#836=CARTESIAN_POINT('',(-59.0000000000012,-65.,10.));
#837=CARTESIAN_POINT('',(-59.0000000000012,-65.,0.));
#838=CARTESIAN_POINT('Origin',(-59.0000000000013,-59.0000000000013,0.));
#839=CARTESIAN_POINT('Origin',(-59.0000000000013,-59.0000000000013,0.));
#840=CARTESIAN_POINT('Origin',(-59.0000000000013,-59.0000000000013,10.));
#841=CARTESIAN_POINT('Origin',(-1.77635683940025E-14,-1.77635683940025E-14,
10.));
#842=CARTESIAN_POINT('Origin',(-1.77635683940025E-14,-1.77635683940025E-14,
0.));
#843=CARTESIAN_POINT('Origin',(59.0000170430551,63.0000000000551,0.));
#844=CARTESIAN_POINT('',(59.0000170430551,63.0000000000551,0.));
#845=CARTESIAN_POINT('',(-58.9999946286041,63.0000000000813,0.));
#846=CARTESIAN_POINT('',(59.0000170430551,63.0000000000551,0.));
#847=CARTESIAN_POINT('',(-58.9999946286041,63.0000000000813,2.));
#848=CARTESIAN_POINT('',(-58.9999946286041,63.0000000000813,0.));
#849=CARTESIAN_POINT('',(59.0000170430551,63.0000000000551,2.));
#850=CARTESIAN_POINT('',(59.0000170430551,63.0000000000551,2.));
#851=CARTESIAN_POINT('',(59.0000170430551,63.0000000000551,0.));
#852=CARTESIAN_POINT('Origin',(58.9999999999999,58.9999999999999,0.));
#853=CARTESIAN_POINT('',(63.0000000000074,58.9999927648103,0.));
#854=CARTESIAN_POINT('Origin',(58.9999999999999,58.9999999999999,0.));
#855=CARTESIAN_POINT('',(63.0000000000074,58.9999927648103,2.));
#856=CARTESIAN_POINT('Origin',(58.9999999999999,58.9999999999999,2.));
#857=CARTESIAN_POINT('',(63.0000000000074,58.9999927648103,0.));
#858=CARTESIAN_POINT('Origin',(63.0000000000116,-58.9999996372342,0.));
#859=CARTESIAN_POINT('',(63.0000000000116,-58.9999996372342,0.));
#860=CARTESIAN_POINT('',(63.0000000000116,-58.9999996372342,0.));
#861=CARTESIAN_POINT('',(63.0000000000116,-58.9999996372342,2.));
#862=CARTESIAN_POINT('',(63.0000000000116,-58.9999996372342,2.));
#863=CARTESIAN_POINT('',(63.0000000000116,-58.9999996372342,0.));
#864=CARTESIAN_POINT('Origin',(58.9999999999997,-58.9999999999997,0.));
#865=CARTESIAN_POINT('',(59.000022981995,-63.0000000000015,0.));
#866=CARTESIAN_POINT('Origin',(58.9999999999997,-58.9999999999997,0.));
#867=CARTESIAN_POINT('',(59.000022981995,-63.0000000000015,2.));
#868=CARTESIAN_POINT('Origin',(58.9999999999997,-58.9999999999997,2.));
#869=CARTESIAN_POINT('',(59.000022981995,-63.0000000000015,0.));
#870=CARTESIAN_POINT('Origin',(-58.9999978434509,-62.9999999999995,0.));
#871=CARTESIAN_POINT('',(-58.9999978434509,-62.9999999999995,0.));
#872=CARTESIAN_POINT('',(-58.9999978434509,-62.9999999999995,0.));
#873=CARTESIAN_POINT('',(-58.9999978434509,-62.9999999999995,2.));
#874=CARTESIAN_POINT('',(-58.9999978434509,-62.9999999999995,2.));
#875=CARTESIAN_POINT('',(-58.9999978434509,-62.9999999999995,0.));
#876=CARTESIAN_POINT('Origin',(-59.0000000000016,-59.0000000000013,0.));
#877=CARTESIAN_POINT('',(-63.,-59.0000044809272,0.));
#878=CARTESIAN_POINT('Origin',(-59.0000000000016,-59.0000000000013,0.));
#879=CARTESIAN_POINT('',(-63.,-59.0000044809272,2.));
#880=CARTESIAN_POINT('Origin',(-59.0000000000016,-59.0000000000013,2.));
#881=CARTESIAN_POINT('',(-63.,-59.0000044809272,0.));
#882=CARTESIAN_POINT('Origin',(-63.0000000000001,59.0000046645347,0.));
#883=CARTESIAN_POINT('',(-63.0000000000822,59.0000046645347,0.));
#884=CARTESIAN_POINT('',(-63.0000000000001,59.0000046645347,0.));
#885=CARTESIAN_POINT('',(-63.0000000000822,59.0000046645347,2.));
#886=CARTESIAN_POINT('',(-63.0000000000001,59.0000046645347,2.));
#887=CARTESIAN_POINT('',(-63.0000000000822,59.0000046645347,0.));
#888=CARTESIAN_POINT('Origin',(-59.,58.9999999999999,0.));
#889=CARTESIAN_POINT('Origin',(-59.,58.9999999999999,0.));
#890=CARTESIAN_POINT('Origin',(-59.,58.9999999999999,2.));
#891=CARTESIAN_POINT('Origin',(-7.33635374672303E-12,4.13979961422228E-11,
2.));
#892=CARTESIAN_POINT('Origin',(-7.33635374672303E-12,4.13979961422228E-11,
0.));
#893=UNCERTAINTY_MEASURE_WITH_UNIT(LENGTH_MEASURE(0.01),#897,
'DISTANCE_ACCURACY_VALUE',
'Maximum model space distance between geometric entities at asserted c
onnectivities');
#894=UNCERTAINTY_MEASURE_WITH_UNIT(LENGTH_MEASURE(0.01),#897,
'DISTANCE_ACCURACY_VALUE',
'Maximum model space distance between geometric entities at asserted c
onnectivities');
#895=(
GEOMETRIC_REPRESENTATION_CONTEXT(3)
GLOBAL_UNCERTAINTY_ASSIGNED_CONTEXT((#893))
GLOBAL_UNIT_ASSIGNED_CONTEXT((#897,#899,#900))
REPRESENTATION_CONTEXT('','3D')
);
#896=(
GEOMETRIC_REPRESENTATION_CONTEXT(3)
GLOBAL_UNCERTAINTY_ASSIGNED_CONTEXT((#894))
GLOBAL_UNIT_ASSIGNED_CONTEXT((#897,#899,#900))
REPRESENTATION_CONTEXT('','3D')
);
#897=(
LENGTH_UNIT()
NAMED_UNIT(*)
SI_UNIT(.MILLI.,.METRE.)
);
#898=(
LENGTH_UNIT()
NAMED_UNIT(*)
SI_UNIT($,.METRE.)
);
#899=(
NAMED_UNIT(*)
PLANE_ANGLE_UNIT()
SI_UNIT($,.RADIAN.)
);
#900=(
NAMED_UNIT(*)
SI_UNIT($,.STERADIAN.)
SOLID_ANGLE_UNIT()
);
#901=SHAPE_DEFINITION_REPRESENTATION(#902,#903);
#902=PRODUCT_DEFINITION_SHAPE('',$,#905);
#903=SHAPE_REPRESENTATION('',(#533),#895);
#904=PRODUCT_DEFINITION_CONTEXT('part definition',#909,'design');
#905=PRODUCT_DEFINITION('2025-05-31-23-56-43-537','Sorting Box',#906,#904);
#906=PRODUCT_DEFINITION_FORMATION('',$,#911);
#907=PRODUCT_RELATED_PRODUCT_CATEGORY('Sorting Box','Sorting Box',(#911));
#908=APPLICATION_PROTOCOL_DEFINITION('international standard',
'automotive_design',2009,#909);
#909=APPLICATION_CONTEXT(
'Core Data for Automotive Mechanical Design Process');
#910=PRODUCT_CONTEXT('part definition',#909,'mechanical');
#911=PRODUCT('2025-05-31-23-56-43-537','Sorting Box',$,(#910));
#912=PRESENTATION_STYLE_ASSIGNMENT((#913));
#913=SURFACE_STYLE_USAGE(.BOTH.,#914);
#914=SURFACE_SIDE_STYLE('',(#915));
#915=SURFACE_STYLE_FILL_AREA(#916);
#916=FILL_AREA_STYLE('Steel - Satin',(#917));
#917=FILL_AREA_STYLE_COLOUR('Steel - Satin',#918);
#918=COLOUR_RGB('Steel - Satin',0.627450980392157,0.627450980392157,0.627450980392157);
ENDSEC;
END-ISO-10303-21;
